<svg width="246" height="246" viewBox="0 0 246 246" fill="none" xmlns="http://www.w3.org/2000/svg">
<rect width="246" height="246" rx="15" fill="#0751FB"/>
<path d="M178.519 54.984C179.256 56.6353 178.897 57.1447 172.64 63.32C169.647 66.2747 163.821 72.0265 159.693 76.1019C155.565 80.1773 149.147 86.4674 145.431 90.0808C141.716 93.6938 136.591 98.6955 134.044 101.196C122.792 112.238 119.802 115.16 114.223 120.56C110.963 123.716 107.381 127.174 106.264 128.246C105.147 129.317 102.438 131.959 100.243 134.116C98.0494 136.274 95.8557 138.343 95.3689 138.714C93.0767 140.46 89.9168 141.207 87.2326 140.636C85.3398 140.234 83.8119 139.283 81.7994 137.254C79.9855 135.426 73.2589 128.421 70.3123 125.294C69.5013 124.434 67.8749 122.725 66.6975 121.497C60.5948 115.131 59.979 114.383 58.9413 112.07C57.0562 107.869 56.9821 101.778 58.7686 97.9367C59.6734 95.9916 60.5896 94.702 65.1399 88.9683C67.7352 85.6979 70.1078 82.7155 70.4131 82.3406C71.7291 80.7249 76.4743 74.6881 77.4287 73.4158C78.0019 72.6519 79.1378 71.1848 79.9529 70.1563C80.7679 69.1271 82.4766 66.9234 83.7504 65.2584C88.1762 59.4736 89.0584 58.524 91.6233 56.7879C94.1811 55.0566 96.7568 53.9211 99.5888 53.276C100.747 53.0122 104.881 52.973 138.212 52.9104C172.723 52.8448 175.602 52.8629 176.373 53.1489C177.358 53.5139 178.174 54.2123 178.519 54.984Z" fill="white"/>
<path d="M189.602 138.066C189.92 139.856 189.059 145.774 188.329 146.816C188.171 147.041 188.042 147.353 188.042 147.509C188.04 148.087 186.186 150.778 182.841 155.059C180.948 157.48 178.431 160.713 177.246 162.241C174.168 166.214 166.701 175.687 163.935 179.129C163.185 180.063 161.615 182.063 160.446 183.575C157.832 186.957 156.336 188.487 154.423 189.736C152.087 191.261 149.948 192.145 146.918 192.838C145.625 193.134 142.992 193.152 109.22 193.099C74.4962 193.043 72.8835 193.026 72.2463 192.703C70.5179 191.825 70.2852 189.643 71.7387 187.945C72.6127 186.926 94.5668 164.841 129.058 130.286C146.656 112.655 153.476 105.937 154.253 105.467C154.971 105.033 155.84 104.716 156.908 104.497C158.873 104.095 159.62 104.088 161.037 104.455C162.988 104.961 163.829 105.563 166.324 108.241C167.606 109.617 169.536 111.665 170.614 112.791C173.072 115.359 174.842 117.233 178.131 120.749C179.558 122.273 181.312 124.146 182.03 124.912C186.246 129.405 187.103 130.452 187.826 131.992C188.672 133.794 189.061 134.962 189.327 136.492C189.433 137.103 189.557 137.811 189.602 138.066Z" fill="white"/>
</svg>
